# xmcd
#
# Track frame offsets: 
#        150
#        20045
#        44809
#        63709
#        78063
#        98218
#        117543
#        136925
#        156653
#        174593
#        191042
#        209644
#        228354
#        248761
#        267260
#        287800
#        307096
#        327497
#
# Disc length: 4535 seconds
#
# Revision: 0
# Processed by: cddbd v1.5.2PL0 Copyright (c) Steve Scherf et al.
# Submitted via: ExactAudioCopy v1.3
#
DISCID=1c11b512
DTITLE=Górniak Edyta  -  Zlota Kolekcja 
DYEAR=2010
DGENRE=Ballad
TTITLE0=Dotyk
TTITLE1=Kasztany
TTITLE2=Jestem Kobieta
TTITLE3=To Nie Ja [Live]
TTITLE4=Nie Opuszczaj Mnie
TTITLE5=Dumka Na Dwa Serca
TTITLE6=Edyta Górniak -  José Carreras - Hope for Us
TTITLE7=Litania
TTITLE8=Anything
TTITLE9=One and One
TTITLE10=When You Come Back to Me
TTITLE11=Never Will I
TTITLE12=Stop [Live]
TTITLE13=Nie Prosze O Wiecej
TTITLE14=Jak Najdalej
TTITLE15=Impossible
TTITLE16=List
TTITLE17=To Nie Tak Jak Myślisz
EXTD=
EXTT0=
EXTT1=
EXTT2=
EXTT3=
EXTT4=
EXTT5=
EXTT6=
EXTT7=
EXTT8=
EXTT9=
EXTT10=
EXTT11=
EXTT12=
EXTT13=
EXTT14=
EXTT15=
EXTT16=
EXTT17=
PLAYORDER=
